<svg id="Capa_1" enable-background="new 0 0 512 512" height="512" viewBox="0 0 512 512" width="512"
  xmlns="http://www.w3.org/2000/svg">
  <g opacity="0.5">
    <path
      d="m361.801 201.703c-6.078-18.664 1.576-44.524-9.75-60.072-11.434-15.696-38.473-16.334-54.169-27.768-15.548-11.326-24.431-36.915-43.095-42.993-18.027-5.87-40.185 9.386-60.145 9.388l-18.569 175.745 18.569 175.739c19.96.001 42.119 15.258 60.146 9.388 18.664-6.078 27.546-31.666 43.094-42.992 15.696-11.434 42.735-12.072 54.169-27.768 11.326-15.548 3.673-41.409 9.75-60.072 5.871-18.028 27.478-34.336 27.478-54.297 0-19.962-21.608-36.27-27.478-54.298z"
      fill="#ffb655" />
    <path
      d="m194.639 80.258c-19.961 0-42.121-15.258-60.148-9.388-18.664 6.078-27.546 31.666-43.094 42.993-15.696 11.434-42.735 12.072-54.169 27.768-11.326 15.548-3.673 41.408-9.75 60.072-5.871 18.028-27.478 34.336-27.478 54.297s21.607 36.269 27.478 54.297c6.078 18.664-1.576 44.524 9.75 60.072 11.434 15.696 38.473 16.334 54.169 27.768 15.548 11.326 24.431 36.915 43.094 42.993 18.028 5.87 40.187-9.388 60.148-9.388h.003v-351.484c-.001 0-.002 0-.003 0z"
      fill="#ffda44" />
    <path
      d="m194.642 125.503-18.569 130.5 18.569 130.495c72.072 0 130.497-58.426 130.497-130.497s-58.425-130.498-130.497-130.498z"
      fill="#ffda44" />
    <path d="m64.145 256c0 72.072 58.426 130.497 130.497 130.497v-260.994c-72.072 0-130.497 58.425-130.497 130.497z"
      fill="#fff79f" />
    <path
      d="m368.321 112.324-19.008 143.679 19.008 143.679c17.692 0 34.634-3.205 50.286-9.055l84.339-84.339c5.849-15.652 9.055-32.594 9.055-50.286-.001-79.351-64.328-143.678-143.68-143.678z"
      fill="#cfcfe6" />
    <path
      d="m502.945 306.288c-.503-.541-1.01-1.079-1.532-1.601-11.273-11.274-26.261-17.482-42.204-17.482s-30.931 6.208-42.204 17.482c-11.273 11.273-17.482 26.261-17.482 42.203s6.208 30.931 17.482 42.205c.522.522 1.059 1.028 1.6 1.531 38.899-14.535 69.805-45.44 84.34-84.338z"
      fill="#a3aacc" />
    <path
      d="m224.642 256.003c0 79.352 64.327 143.679 143.679 143.679v-287.358c-79.352 0-143.679 64.327-143.679 143.679z"
      fill="#ece6f2" />
    <path
      d="m368.321 158.641-19.008 44.542 19.008 44.542c24.561 0 44.542-19.981 44.542-44.542s-19.981-44.542-44.542-44.542z"
      fill="#a3aacc" />
    <g fill="#cfcfe6">
      <path d="m323.779 203.183c0 24.561 19.982 44.542 44.542 44.542v-89.084c-24.561 0-44.542 19.981-44.542 44.542z" />
      <path d="m296.153 288.803h31.867v30h-31.867z" />
    </g>
  </g>
</svg>