<svg id="Capa_1" enable-background="new 0 0 512 512" height="512" viewBox="0 0 512 512" width="512" xmlns="http://www.w3.org/2000/svg"><g><g><path d="m328.932 282.253c-1.774 8.819-19.795 10.798-24.517 17.827-4.895 7.286-.021 24.662-7.217 29.448s-21.336-6.427-29.948-4.73c-8.308 1.638-17.1 17.492-25.919 15.718s-10.798-19.794-17.827-24.517c-7.286-4.895-24.662-.021-29.448-7.217s6.427-21.336 4.729-29.948c-1.638-8.308-17.492-17.1-15.718-25.919s19.795-10.798 24.517-17.827c4.895-7.286.021-24.662 7.217-29.448s21.336 6.427 29.948 4.729c8.308-1.638 17.1-17.492 25.919-15.718s10.798 19.794 17.827 24.517c7.286 4.895 24.662.021 29.448 7.217s-6.427 21.336-4.729 29.948c1.637 8.31 17.491 17.102 15.718 25.92z" fill="#ffe266"/><ellipse cx="256" cy="267.585" fill="#fef2a8" rx="37.249" ry="37.249" transform="matrix(.525 -.851 .851 .525 -106.106 345.155)"/><path d="m256 230.336c-1.827 0-3.622.137-5.378.391 12.882 2.183 22.695 13.388 22.695 26.891 0 15.068-12.215 27.283-27.283 27.283-13.503 0-24.708-9.812-26.891-22.695-.254 1.757-.392 3.551-.392 5.378 0 20.572 16.677 37.249 37.249 37.249s37.249-16.677 37.249-37.249c0-20.571-16.677-37.248-37.249-37.248z" fill="#eeb6a8"/><g><path d="m256 442.798c-67.505 0-131.103-17.788-179.078-50.088-49.198-33.12-76.292-77.558-76.292-125.125s27.094-92.005 76.292-125.126c47.976-32.3 111.574-50.088 179.078-50.088s131.103 17.788 179.078 50.088c49.198 33.121 76.292 77.559 76.292 125.126s-27.094 92.005-76.292 125.126c-47.975 32.299-111.573 50.087-179.078 50.087zm0-330.301c-63.543 0-123.15 16.569-167.839 46.656-43.467 29.264-67.406 67.772-67.406 108.432s23.939 79.168 67.406 108.432c44.689 30.086 104.296 46.656 167.839 46.656s123.149-16.569 167.839-46.656c43.467-29.264 67.406-67.772 67.406-108.432 0-40.659-23.939-79.168-67.406-108.432-44.69-30.087-104.296-46.656-167.839-46.656z" fill="#ad99c9"/></g><g><path d="m256 378.154c-45.523 0-88.468-10.984-120.923-30.927-33.984-20.883-52.7-49.168-52.7-79.643s18.716-58.759 52.7-79.642c32.455-19.943 75.4-30.927 120.923-30.927s88.468 10.984 120.923 30.927c33.985 20.883 52.7 49.168 52.7 79.642 0 30.475-18.716 58.759-52.7 79.643-32.455 19.943-75.4 30.927-120.923 30.927zm0-201.013c-41.854 0-81.057 9.925-110.386 27.948-27.801 17.083-43.111 39.278-43.111 62.495s15.311 45.412 43.111 62.495c29.329 18.023 68.532 27.948 110.386 27.948s81.057-9.925 110.386-27.948c27.8-17.083 43.111-39.278 43.111-62.495s-15.311-45.412-43.111-62.495c-29.329-18.022-68.532-27.948-110.386-27.948z" fill="#ad99c9"/></g><ellipse cx="91.433" cy="389.707" fill="#8bb6ef" rx="39.066" ry="39.066" transform="matrix(.972 -.234 .234 .972 -88.527 32.151)"/><path d="m91.434 350.642c-1.951 0-3.868.147-5.742.424 13.393 2.311 23.583 13.977 23.583 28.03 0 15.715-12.739 28.453-28.453 28.453-14.053 0-25.718-10.19-28.03-23.583-.276 1.874-.424 3.791-.424 5.742 0 21.576 17.491 39.066 39.066 39.066s39.066-17.49 39.066-39.066c-.001-21.576-17.491-39.066-39.066-39.066z" fill="#8388ef"/><circle cx="219.254" cy="104.447" fill="#78eac4" r="25.522"/><ellipse cx="419.56" cy="272.243" fill="#ef8bbd" rx="27.354" ry="27.354" transform="matrix(.924 -.383 .383 .924 -72.246 181.282)"/></g><g><ellipse cx="479.284" cy="92.479" fill="#ffe266" rx="18.664" ry="18.664" transform="matrix(.23 -.973 .973 .23 279.161 537.694)"/><circle cx="115.229" cy="39.222" fill="#ffa585" r="7.904"/><circle cx="151.955" cy="469.781" fill="#a183e2" r="7.904"/><path d="m34.451 63.264 6.34 17.828c.271.763.809 1.368 1.487 1.674l15.84 7.136c2.238 1.008 2.238 4.574 0 5.582l-15.84 7.136c-.678.306-1.216.91-1.487 1.674l-6.34 17.828c-.896 2.519-4.064 2.519-4.959 0l-6.34-17.828c-.271-.763-.809-1.368-1.487-1.674l-15.84-7.137c-2.238-1.008-2.238-4.574 0-5.582l15.839-7.136c.678-.306 1.216-.911 1.487-1.674l6.34-17.828c.896-2.518 4.064-2.518 4.96.001z" fill="#fef2a8"/><path d="m394.686 1.889 6.34 17.828c.271.763.809 1.368 1.487 1.674l15.839 7.136c2.238 1.008 2.238 4.574 0 5.582l-15.839 7.136c-.678.306-1.216.91-1.487 1.674l-6.34 17.828c-.896 2.519-4.064 2.519-4.959 0l-6.34-17.828c-.271-.763-.809-1.368-1.487-1.674l-15.839-7.136c-2.238-1.008-2.238-4.574 0-5.582l15.839-7.136c.678-.306 1.216-.91 1.487-1.674l6.34-17.828c.895-2.519 4.063-2.519 4.959 0z" fill="#b2e7f1"/><path d="m463.121 430.108 8.712 24.034c.373 1.029 1.112 1.844 2.043 2.256l21.765 9.62c3.075 1.359 3.075 6.166 0 7.525l-21.765 9.62c-.932.412-1.67 1.227-2.043 2.256l-8.712 24.034c-1.231 3.395-5.583 3.395-6.815 0l-8.712-24.034c-.373-1.029-1.112-1.845-2.043-2.256l-21.765-9.62c-3.075-1.359-3.075-6.166 0-7.525l21.765-9.62c.932-.412 1.67-1.227 2.043-2.256l8.712-24.034c1.232-3.396 5.584-3.396 6.815 0z" fill="#bdf4e3"/></g></g></svg>