<?xml version="1.0" encoding="iso-8859-1"?>
<!-- Generator: Adobe Illustrator 19.0.0, SVG Export Plug-In . SVG Version: 6.00 Build 0)  -->
<svg version="1.1" id="Capa_1" xmlns="http://www.w3.org/2000/svg" xmlns:xlink="http://www.w3.org/1999/xlink" x="0px" y="0px"
	 viewBox="0 0 468.293 468.293" style="enable-background:new 0 0 468.293 468.293;" xml:space="preserve">
<g>

	<rect width="100%" height="100%" fill="rgba(17, 24, 39, var(--tw-bg-opacity))" />
	
	<path style="fill:#E1E6E9;" d="M466.804,207.74C454.906,102.037,369.619,17.528,263.823,6.489
		C136.895-6.754,27.986,84.474,12.423,204.576c-0.46,3.552,2.384,6.695,5.965,6.695c3.006,0,5.484-2.25,5.872-5.23
		C39.054,92.218,142.248,5.765,262.55,18.315c100.294,10.463,181.147,90.571,192.435,190.775
		c14.739,130.838-87.698,242.099-215.629,242.099c-101.557,0-186.895-70.168-210.444-164.536c-0.665-2.664-3.01-4.552-5.756-4.552h0
		c-3.86,0-6.789,3.627-5.856,7.373c24.814,99.578,114.905,173.609,222.056,173.609C374.292,463.082,482.336,345.735,466.804,207.74z
		"/>
	<path style="fill:#E1E6E9;" d="M411.09,211.438C402.059,140.822,334.688,72.6,264.188,62.704
		c-38.418-5.393-74.84,1.982-105.752,18.412c-2.8,1.488-3.438,5.047-1.787,7.755c0.101,0.166,0.2,0.332,0.297,0.502
		c1.483,2.57,4.588,3.561,7.211,2.172c29.134-15.442,63.503-22.261,99.736-16.863c70.619,10.522,126.597,67.924,135.462,138.77
		c13.167,105.22-75.77,194.03-181.019,180.653c-70.698-8.986-127.953-64.887-138.442-135.378
		c-6.682-44.908,5.327-87.002,29.36-119.754c1.845-2.515,1.179-5.876-1.326-7.735c-0.084-0.062-0.167-0.125-0.249-0.188
		c-2.494-1.908-6.039-1.749-7.9,0.781c-23.898,32.496-36.774,73.568-32.94,117.695c6.823,78.541,79.5,150.817,158.077,157.219
		C334.492,415.674,425.217,321.906,411.09,211.438z"/>
	<path style="fill:#E1E6E9;" d="M339.216,200.359c5.671,16.516,7.428,34.813,3.751,53.943c-8.459,44.001-43.814,77.965-88.173,84.29
		c-69.786,9.95-129.127-48.881-120.068-118.524c5.953-45.762,42.127-82.924,87.708-90.132c25.423-4.02,49.376,1.268,69.312,12.797
		c2.788,1.612,6.214,0.789,8.049-1.858c0.023-0.033,0.046-0.065,0.068-0.098c1.88-2.69,0.969-6.529-1.868-8.18
		c-20.576-11.969-45.039-17.936-71.055-15.245c-54.695,5.657-98.812,49.81-104.396,104.512
		c-7.76,76.008,57.475,139.407,133.989,128.497c48.043-6.85,87.464-43.718,97.593-91.178c4.75-22.259,2.935-43.605-3.657-62.768
		c-1.15-3.343-4.942-5.067-8.1-3.479c-0.036,0.018-0.072,0.036-0.108,0.054C339.511,194.358,338.218,197.454,339.216,200.359z"/>
	<path style="fill:#E1E6E9;" d="M271.786,181.714c-4.033-2.502-9.262,0.335-9.262,5.079c0,2.133,1.176,4.034,2.988,5.157
		c17.427,10.804,27.764,31.956,22.071,54.869c-4.636,18.659-19.319,32.432-38.185,36.14c-31.842,6.258-59.843-18.067-59.843-48.812
		c0-14.808,6.56-28.031,16.873-37.128c1.305-1.151,2.104-2.758,2.104-4.498v0c0-5.087-6.029-7.955-9.853-4.6
		c-15.379,13.496-24.017,34.464-20.058,57.224c4.326,24.87,24.154,44.991,48.973,49.602c39.161,7.276,73.456-22.732,73.456-60.6
		C301.05,212.021,289.334,192.598,271.786,181.714z"/>
</g>
<g>
	<circle style="fill:#FCD462;" cx="17.839" cy="248.07" r="17.839"/>
	<circle style="fill:#FCD462;" cx="235.083" cy="181.947" r="15.61"/>
</g>
<circle style="fill:#27A2DB;" cx="131.309" cy="108.013" r="17.839"/>
<circle style="fill:#44C4A1;" cx="324.246" cy="167.462" r="17.839"/>

</svg>
