<?xml version="1.0" encoding="iso-8859-1"?>
<!-- Generator: Adobe Illustrator 18.0.0, SVG Export Plug-In . SVG Version: 6.00 Build 0)  -->
<!DOCTYPE svg PUBLIC "-//W3C//DTD SVG 1.1//EN" "http://www.w3.org/Graphics/SVG/1.1/DTD/svg11.dtd">
<svg version="1.1" id="Capa_1" xmlns="http://www.w3.org/2000/svg" xmlns:xlink="http://www.w3.org/1999/xlink" x="0px" y="0px"
	 viewBox="0 0 53.617 53.617" style="enable-background:new 0 0 53.617 53.617;" xml:space="preserve">
<path d="M26.346,49.77c-7.376,0-14.753,0.086-22.125-0.075c-1.442-0.031-3.608-0.667-4.086-1.67
	c-0.485-1.017,0.443-2.99,1.208-4.272c3.343-5.605,6.863-11.105,10.293-16.66c1.074-1.737,1.923-3.358-1.397-3.515
	c-1.76-0.083-4.243-0.103-4.076-2.617c0.167-2.524,2.71-2.258,4.394-2.045c4.579,0.58,7.237-1.46,9.113-5.443
	c1.301-2.762,3.009-5.367,4.796-7.855c1.763-2.453,2.887-2.353,4.657,0.074c2.412,3.308,4.902,6.57,7.11,10.011
	c1.623,2.528,3.659,3.57,6.63,3.381c2.443-0.156,4.919-0.021,7.362,0.196c0.644,0.058,1.766,0.967,1.713,1.356
	c-0.117,0.875-0.676,1.854-1.356,2.44c-0.543,0.466-1.525,0.472-2.326,0.581c-5.551,0.756-5.362,0.649-2.92,5.372
	c2.808,5.432,5.187,11.084,7.856,16.59c1.003,2.07,0.153,3.231-1.678,3.688c-1.562,0.389-3.251,0.347-4.884,0.354
	c-6.761,0.034-13.522,0.015-20.283,0.015C26.346,49.707,26.346,49.738,26.346,49.77z M26.534,45.4c0-0.143,0.001-0.284,0.001-0.426
	c5.53,0,11.06,0.042,16.59-0.012c5.474-0.054,5.71-0.424,3.202-5.514c-1.264-2.566-2.759-5.024-4.24-7.476
	c-4.973-8.229-4.989-8.219-14.321-8.168c-2.048,0.011-4.103,0.129-6.143,0.005c-2.342-0.143-3.751,0.81-4.87,2.877
	c-3.016,5.573-6.213,11.049-9.371,16.545c-0.943,1.643-0.348,2.179,1.338,2.175C14.658,45.39,20.596,45.4,26.534,45.4z
	 M28.807,18.79c0.292-0.045,1.84-0.278,3.388-0.513c-0.771-1.395-1.531-2.798-2.318-4.185c-0.3-0.528-0.641-1.037-1-1.528
	c-2.24-3.056-2.337-3.046-4.281,0.352C21.306,18.663,21.306,18.663,28.807,18.79z"/>
<g>
</g>
<g>
</g>
<g>
</g>
<g>
</g>
<g>
</g>
<g>
</g>
<g>
</g>
<g>
</g>
<g>
</g>
<g>
</g>
<g>
</g>
<g>
</g>
<g>
</g>
<g>
</g>
<g>
</g>
</svg>
