<?xml version="1.0" encoding="iso-8859-1"?>
<!-- Generator: Adobe Illustrator 18.0.0, SVG Export Plug-In . SVG Version: 6.00 Build 0)  -->
<!DOCTYPE svg PUBLIC "-//W3C//DTD SVG 1.1//EN" "http://www.w3.org/Graphics/SVG/1.1/DTD/svg11.dtd">
<svg version="1.1" id="Capa_1" xmlns="http://www.w3.org/2000/svg" xmlns:xlink="http://www.w3.org/1999/xlink" x="0px" y="0px"
	 viewBox="0 0 53.034 53.034" style="enable-background:new 0 0 53.034 53.034;" xml:space="preserve">
<path d="M20.068,2.13c8.371,0.658,16.743,1.317,25.115,1.976c0.408,0.032,0.819,0.052,1.225,0.108
	c7.411,1.027,8.149,2.421,4.46,8.865c-2.952,5.159-6.081,10.218-9.065,15.359c-3.174,5.469-3.14,5.486,2.92,5.509
	c1.641,0.006,3.35-0.244,4.898,0.142c1.189,0.296,2.177,1.405,3.255,2.153c-1.015,0.752-1.963,2.018-3.056,2.159
	C46.578,38.82,43.278,38.892,40,38.91c-2.32,0.012-3.611,0.946-4.783,3.017c-1.49,2.632-3.476,5.053-5.575,7.252
	c-2.424,2.537-3.917,2.238-5.746-0.643c-2.074-3.265-3.454-7.536-6.387-9.527c-2.728-1.853-7.101-1.286-10.749-1.78
	c-0.406-0.055-0.901,0.051-1.208-0.146c-0.931-0.598-1.788-1.309-2.674-1.976c1.013-0.518,1.977-1.252,3.051-1.495
	c1.173-0.265,2.459,0.029,3.676-0.105c1.918-0.211,3.819-0.576,5.727-0.875c-0.783-1.858-1.358-3.843-2.4-5.542
	c-1.495-2.438-3.231-4.748-5.044-6.966c-3.281-4.016-5.896-8.322-7.267-13.395C-0.404,2.935-0.581,2.763,3.443,2.61
	C8.97,2.399,14.51,2.557,20.044,2.557C20.052,2.414,20.06,2.272,20.068,2.13z M21.91,8.104c0.001-0.351,0.002-0.702,0.003-1.052
	c-3.266,0-6.532-0.03-9.798,0.01c-2.32,0.028-4.641,0.149-6.96,0.229c1.053,2.183,1.794,4.599,3.219,6.504
	c4.276,5.719,8.979,11.112,11.749,17.85c0.417,1.014,2.03,1.886,3.235,2.145c1.971,0.425,4.062,0.277,6.1,0.4
	c2.309,0.139,3.629-0.928,4.815-2.95c3.407-5.808,7.109-11.442,10.689-17.148c0.868-1.384,1.77-2.75,2.552-4.182
	c0.628-1.148,0.364-1.826-1.14-1.821C38.221,8.12,30.066,8.104,21.91,8.104z"/>
<g>
</g>
<g>
</g>
<g>
</g>
<g>
</g>
<g>
</g>
<g>
</g>
<g>
</g>
<g>
</g>
<g>
</g>
<g>
</g>
<g>
</g>
<g>
</g>
<g>
</g>
<g>
</g>
<g>
</g>
</svg>
