<?xml version="1.0" encoding="iso-8859-1"?>
<!-- Generator: Adobe Illustrator 18.0.0, SVG Export Plug-In . SVG Version: 6.00 Build 0)  -->
<!DOCTYPE svg PUBLIC "-//W3C//DTD SVG 1.1//EN" "http://www.w3.org/Graphics/SVG/1.1/DTD/svg11.dtd">
<svg version="1.1" id="Capa_1" xmlns="http://www.w3.org/2000/svg" xmlns:xlink="http://www.w3.org/1999/xlink" x="0px" y="0px"
	 viewBox="0 0 58.511 58.511" style="enable-background:new 0 0 58.511 58.511;" xml:space="preserve">
<path d="M29.591,54.028c-8.812,0-17.624,0.065-26.435-0.036c-2.98-0.035-4.092-1.869-2.278-3.782
	C12.474,37.976,18.17,21.959,27.843,8.506c0.119-0.167,0.224-0.344,0.336-0.516c3.157-4.817,3.177-4.52,6.881-0.211
	c8.695,10.114,14.207,21.982,19.67,33.92c0.853,1.862,1.721,3.724,2.464,5.631c2.403,6.165,1.923,6.694-4.845,6.588
	c-7.584-0.12-15.172-0.028-22.757-0.028C29.591,53.936,29.591,53.982,29.591,54.028z M29.808,49.334c0-0.038,0-0.076,0-0.114
	c3.689,0,7.379,0.038,11.068-0.012c3.457-0.046,6.913-0.186,10.37-0.283c-1.196-3.33-2.051-6.836-3.654-9.957
	c-4.582-8.918-9.473-17.679-14.235-26.505c-1.155-2.143-2-1.965-3.229,0.093c-6.824,11.427-13.74,22.799-20.67,34.162
	c-1.056,1.73-0.912,2.617,1.293,2.616C17.104,49.333,23.456,49.334,29.808,49.334z"/>
<g>
</g>
<g>
</g>
<g>
</g>
<g>
</g>
<g>
</g>
<g>
</g>
<g>
</g>
<g>
</g>
<g>
</g>
<g>
</g>
<g>
</g>
<g>
</g>
<g>
</g>
<g>
</g>
<g>
</g>
</svg>
