<?xml version="1.0" encoding="iso-8859-1"?>
<!-- Generator: Adobe Illustrator 18.0.0, SVG Export Plug-In . SVG Version: 6.00 Build 0)  -->
<!DOCTYPE svg PUBLIC "-//W3C//DTD SVG 1.1//EN" "http://www.w3.org/Graphics/SVG/1.1/DTD/svg11.dtd">
<svg version="1.1" id="Capa_1" xmlns="http://www.w3.org/2000/svg" xmlns:xlink="http://www.w3.org/1999/xlink" x="0px" y="0px"
	 viewBox="0 0 53.676 53.676" style="enable-background:new 0 0 53.676 53.676;" xml:space="preserve">
<path d="M46.466,26.229c0,7.146,0.035,14.292-0.035,21.438c-0.012,1.198-0.197,2.575-0.817,3.538
	c-0.661,1.028-1.933,1.664-2.938,2.471c-0.631-1.172-1.355-2.307-1.847-3.535c-0.199-0.497,0.13-1.196,0.188-1.806
	c0.747-7.721,0.746-7.719-6.726-7.734c-7.576-0.015-15.153-0.024-22.729-0.064c-1.012-0.005-2.081-0.002-3.021-0.313
	C7.047,39.727,6.69,37.636,8.041,36.8c1.534-0.95,3.305-1.553,5.023-2.163c6.631-2.356,12.831-5.36,17.612-10.768
	c3.649-4.126,4.42-8.637,2.147-13.639c-1.336-2.938-3.219-5.289-6.804-5.351c-3.642-0.065-6.241,1.743-7.931,4.848
	c-0.575,1.058-0.652,2.384-1.218,3.449c-0.48,0.902-1.337,1.606-2.026,2.398c-0.557-0.998-1.49-1.954-1.605-3.001
	c-0.485-4.398,2.616-9.207,7.025-11.289C25.112-1.006,30.18-0.2,33.872,3.446c5.732,5.664,6.854,14.806,1.938,21.33
	c-2.655,3.524-6.42,6.209-9.651,9.306c-0.352,0.338-0.493,0.897-0.732,1.354c0.394,0.097,0.785,0.275,1.18,0.279
	c3.686,0.035,7.378-0.086,11.056,0.093c2.881,0.141,4.011-0.859,3.939-3.847c-0.176-7.369-0.134-14.745-0.082-22.117
	c0.013-1.819,0.272-3.664,0.681-5.438c0.13-0.563,1.055-1.079,1.723-1.312c0.237-0.083,1.054,0.681,1.153,1.153
	c0.461,2.191,1.008,4.408,1.074,6.63c0.155,5.112,0.05,10.232,0.05,15.35C46.289,26.229,46.378,26.229,46.466,26.229z"/>
<g>
</g>
<g>
</g>
<g>
</g>
<g>
</g>
<g>
</g>
<g>
</g>
<g>
</g>
<g>
</g>
<g>
</g>
<g>
</g>
<g>
</g>
<g>
</g>
<g>
</g>
<g>
</g>
<g>
</g>
</svg>
