<?xml version="1.0" encoding="iso-8859-1"?>
<!-- Generator: Adobe Illustrator 18.0.0, SVG Export Plug-In . SVG Version: 6.00 Build 0)  -->
<!DOCTYPE svg PUBLIC "-//W3C//DTD SVG 1.1//EN" "http://www.w3.org/Graphics/SVG/1.1/DTD/svg11.dtd">
<svg version="1.1" id="Capa_1" xmlns="http://www.w3.org/2000/svg" xmlns:xlink="http://www.w3.org/1999/xlink" x="0px" y="0px"
	 viewBox="0 0 55.511 55.511" style="enable-background:new 0 0 55.511 55.511;" xml:space="preserve">
<path d="M19.58,10.672c6.288,0.086,11.31,1.018,15.86,3.586c1.902,1.073,3.194,1.308,4.7-0.576c1.657-2.073,3.609-3.912,5.447-5.839
	c1.224-1.284,1.016-1.958-0.771-2.327c-1.595-0.329-3.193-0.786-4.674-1.446c-0.589-0.262-1.233-1.256-1.18-1.857
	c0.051-0.564,1.084-1.566,1.522-1.486c4.183,0.77,8.332,1.725,12.487,2.644c0.183,0.04,0.458,0.213,0.479,0.356
	c0.724,4.779,1.45,9.559,2.059,14.353c0.039,0.307-0.887,1.068-1.307,1.028c-0.719-0.068-1.805-0.443-2.012-0.974
	c-0.659-1.687-0.925-3.523-1.468-5.262c-0.22-0.703-0.679-1.742-1.18-1.837c-0.56-0.107-1.382,0.587-1.926,1.106
	c-0.886,0.845-1.539,1.946-2.465,2.735c-3.38,2.884-4.132,5.869-1.964,10.133c2.381,4.681,2.426,10.079,0.955,15.048
	c-4.407,14.879-16.573,17.091-27.029,12.77C11.521,50.515,6.948,46.595,3.59,41.554c-4.61-6.921-4.561-14.495-1.103-21.664
	C6.035,12.533,13.206,11.017,19.58,10.672z M19.914,15.216c-0.69,0.047-2.57-0.053-4.341,0.339c-4.396,0.973-8.188,3.109-9.52,7.677
	c-1.781,6.109-1.899,12.25,2.999,17.162c2.707,2.716,5.658,5.437,8.997,7.227c9.892,5.304,20.767-0.479,21.831-11.274
	C41.056,24.419,32.942,15.313,19.914,15.216z"/>
<g>
</g>
<g>
</g>
<g>
</g>
<g>
</g>
<g>
</g>
<g>
</g>
<g>
</g>
<g>
</g>
<g>
</g>
<g>
</g>
<g>
</g>
<g>
</g>
<g>
</g>
<g>
</g>
<g>
</g>
</svg>
