<?xml version="1.0" encoding="iso-8859-1"?>
<!-- Generator: Adobe Illustrator 18.0.0, SVG Export Plug-In . SVG Version: 6.00 Build 0)  -->
<!DOCTYPE svg PUBLIC "-//W3C//DTD SVG 1.1//EN" "http://www.w3.org/Graphics/SVG/1.1/DTD/svg11.dtd">
<svg version="1.1" id="Capa_1" xmlns="http://www.w3.org/2000/svg" xmlns:xlink="http://www.w3.org/1999/xlink" x="0px" y="0px"
	 viewBox="0 0 67.302 67.302" style="enable-background:new 0 0 67.302 67.302;" xml:space="preserve">
<path d="M48.123,1.83c-0.104,0.76-0.128,0.963-0.161,1.165c-1.053,6.441-1.082,6.463,2.698,11.619
	c2.667,3.639,4.144,7.643,3.209,12.118c-1.86,8.901-4.938,17.067-14.652,20.317c-1.829,0.612-2.725,1.5-2.522,3.513
	c0.208,2.059,1.649,1.994,3.092,2.123c0.811,0.072,1.7,0.084,2.391,0.44c0.649,0.336,1.61,1.228,1.504,1.629
	c-0.223,0.842-1.107,2.205-1.629,2.165c-5.521-0.421-5.606,3.095-5.463,7.028c0.063,1.751-0.645,3.42-2.747,3.351
	c-2.268-0.074-2.236-1.971-2.281-3.633c-0.018-0.613,0.064-1.229,0.056-1.845c-0.058-3.917-0.062-3.913-4.272-4.677
	c-0.803-0.145-1.716-0.143-2.36-0.552c-0.603-0.383-1.286-1.238-1.257-1.854c0.029-0.607,0.818-1.544,1.428-1.688
	c1.576-0.374,3.37-0.067,4.819-0.66c1.057-0.432,1.987-1.763,2.385-2.899c0.146-0.417-1.294-1.884-2.191-2.09
	c-4.993-1.148-9.089-3.538-12.29-7.597c-7.065-8.959-6.167-19.775,2.412-27.438c0.76-0.679,1.645-1.22,2.491-1.797
	c1.325-0.905,1.313-1.774,0.195-2.931c-0.983-1.02-1.92-2.178-2.518-3.444c-0.357-0.754-0.018-1.836,0.009-2.77
	c0.822,0.339,1.903,0.452,2.428,1.053c3.479,3.985,8.017,5.454,13.074,5.934c3.245,0.308,5.611-0.673,6.788-3.904
	c0.419-1.152,0.813-2.392,1.554-3.324c0.525-0.66,1.723-1.323,2.422-1.156C47.407,0.187,47.828,1.411,48.123,1.83z M33.442,42.405
	c7.938,0.3,15.059-7.748,15.479-17.495c0.316-7.309-7.065-12.54-18.355-13.01c-5.637-0.234-12.266,7.783-12.566,15.196
	C17.695,34.627,25.23,42.096,33.442,42.405z"/>
<g>
</g>
<g>
</g>
<g>
</g>
<g>
</g>
<g>
</g>
<g>
</g>
<g>
</g>
<g>
</g>
<g>
</g>
<g>
</g>
<g>
</g>
<g>
</g>
<g>
</g>
<g>
</g>
<g>
</g>
</svg>
