<?xml version="1.0" encoding="iso-8859-1"?>
<!-- Generator: Adobe Illustrator 18.0.0, SVG Export Plug-In . SVG Version: 6.00 Build 0)  -->
<!DOCTYPE svg PUBLIC "-//W3C//DTD SVG 1.1//EN" "http://www.w3.org/Graphics/SVG/1.1/DTD/svg11.dtd">
<svg version="1.1" id="Capa_1" xmlns="http://www.w3.org/2000/svg" xmlns:xlink="http://www.w3.org/1999/xlink" x="0px" y="0px"
	 viewBox="0 0 46.581 46.581" style="enable-background:new 0 0 46.581 46.581;" xml:space="preserve">
<path d="M34.282,46.581c-5.949-0.245-11.344-1.33-16.286-3.991c-10-5.384-13.972-15.755-10.337-26.633
	C11.213,5.322,21.771-1.419,32.434,0.254c1.553,0.244,3.203,0.77,4.491,1.636c4.224,2.841,4.163,2.938-0.149,5.373
	c-3.743,2.113-6.16,5.365-7.505,9.346c-2.426,7.177-1.318,14.123,1.871,20.813c1.31,2.747,3.441,4.427,6.621,4.834
	c0.896,0.115,1.661,1.243,2.486,1.906c-0.888,0.737-1.67,1.753-2.691,2.136C36.46,46.709,35.141,46.527,34.282,46.581z
	 M11.706,23.447C11.697,31.276,16.4,37.759,23.82,40.081c0.54,0.17,1.281,0.235,1.722-0.015c0.27-0.153,0.281-1.032,0.168-1.53
	c-0.179-0.79-0.629-1.514-0.843-2.299c-3.012-11.082-2.934-21.494,6.512-29.875c0.364-0.323,0.461-0.948,0.683-1.432
	c-0.596-0.108-1.191-0.31-1.788-0.312C19.949,4.576,11.717,12.935,11.706,23.447z"/>
<g>
</g>
<g>
</g>
<g>
</g>
<g>
</g>
<g>
</g>
<g>
</g>
<g>
</g>
<g>
</g>
<g>
</g>
<g>
</g>
<g>
</g>
<g>
</g>
<g>
</g>
<g>
</g>
<g>
</g>
</svg>
