<?xml version="1.0" encoding="iso-8859-1"?>
<!-- Generator: Adobe Illustrator 18.0.0, SVG Export Plug-In . SVG Version: 6.00 Build 0)  -->
<!DOCTYPE svg PUBLIC "-//W3C//DTD SVG 1.1//EN" "http://www.w3.org/Graphics/SVG/1.1/DTD/svg11.dtd">
<svg version="1.1" id="Capa_1" xmlns="http://www.w3.org/2000/svg" xmlns:xlink="http://www.w3.org/1999/xlink" x="0px" y="0px"
	 viewBox="0 0 56.426 56.426" style="enable-background:new 0 0 56.426 56.426;" xml:space="preserve">
<path d="M31.37,56.426c-2.392-0.407-4.853-0.603-7.143-1.332c-0.854-0.271-1.311-1.792-1.949-2.742
	c1.097-0.648,2.188-1.829,3.293-1.843c3.042-0.038,6.087,0.575,9.137,0.622c2.948,0.045,5.374-1.336,5.775-4.424
	c0.759-5.833,0.039-11.507-3.839-16.247c-3.387-4.14-7.09-4.161-9.99,0.196c-1.638,2.461-2.213,5.606-3.485,8.343
	c-0.519,1.117-1.627,2.787-2.447,2.776c-2.146-0.03-2.155-1.947-2.049-3.679c0.399-6.53,0.89-13.059,1.094-19.595
	c0.122-3.918-0.104-3.807-4-4.325c-1.678-0.224-4.691-1.111-4.671-1.597c0.106-2.563,2.534-1.805,4.182-2.035
	c4.268-0.594,4.138-0.583,4.816-4.661c0.359-2.162-0.853-5.961,2.412-5.883c2.692,0.065,1.716,3.651,1.75,5.734
	c0.039,2.466,0.584,3.931,3.436,3.648c0.963-0.095,2.172,0.03,2.892,0.564c0.464,0.344,0.552,1.767,0.231,2.422
	c-0.273,0.557-1.376,0.703-2.108,1.037c-1.403,0.641-3.847,1.089-4.013,1.966c-0.524,2.759-0.209,5.68-0.108,8.534
	c0.003,0.098,1.265,0.375,1.821,0.196c7.059-2.265,11.795-0.609,15.506,5.616c3.175,5.328,3.921,11.202,3.124,17.201
	c-0.756,5.688-4.647,8.84-10.541,9.126c-1.021,0.05-2.047,0.007-3.07,0.007C31.405,56.178,31.388,56.302,31.37,56.426z"/>
<g>
</g>
<g>
</g>
<g>
</g>
<g>
</g>
<g>
</g>
<g>
</g>
<g>
</g>
<g>
</g>
<g>
</g>
<g>
</g>
<g>
</g>
<g>
</g>
<g>
</g>
<g>
</g>
<g>
</g>
</svg>
