<?xml version="1.0" encoding="iso-8859-1"?>
<!-- Generator: Adobe Illustrator 18.0.0, SVG Export Plug-In . SVG Version: 6.00 Build 0)  -->
<!DOCTYPE svg PUBLIC "-//W3C//DTD SVG 1.1//EN" "http://www.w3.org/Graphics/SVG/1.1/DTD/svg11.dtd">
<svg version="1.1" id="Capa_1" xmlns="http://www.w3.org/2000/svg" xmlns:xlink="http://www.w3.org/1999/xlink" x="0px" y="0px"
	 viewBox="0 0 52.224 52.224" style="enable-background:new 0 0 52.224 52.224;" xml:space="preserve">
<path d="M24.354,50.564C15.791,49.933,9.004,46.984,4.13,39.94C-5.24,26.4,2.13,7.59,18.213,4.168
	c1.387-0.295,2.855-0.362,4.159-0.865C33.311-0.92,44.52,3.199,50.135,13.355c2.587,4.677,2.453,9.678,1.306,14.367
	c-2.016,8.237-6.807,15.072-14.298,19.172C33.347,48.971,28.646,49.394,24.354,50.564z M28.403,15.351
	c0.082,1.827,0.12,3.053,0.195,4.277c0.286,4.657,0.287,4.692,4.892,5.128c3.457,0.327,6.937,0.434,10.38,0.858
	c2.121,0.261,2.876-0.437,3.127-2.53c0.92-7.662-5.952-15.004-14.143-16.688c-0.687-0.141-1.671,0.646-2.372,1.189
	C27.615,9.812,28.168,12.928,28.403,15.351z M12.442,28.538c-0.011,0.079-0.021,0.157-0.03,0.235
	c-0.609-0.042-1.219-0.083-1.828-0.128c-0.812-0.059-1.624-0.125-2.436-0.182c-3.142-0.219-3.685,0.315-3.111,3.046
	c1.273,6.056,7.375,12.097,13.195,13.064c3.95,0.656,4.705,0.134,4.747-3.856c0.039-3.605-0.191-7.212-0.303-10.819
	C19.265,29.445,15.853,28.992,12.442,28.538z M13.552,23.75c10.834-0.076,10.835-0.076,9.657-11.077
	c-0.087-0.811-0.216-1.618-0.288-2.43c-0.188-2.084-1.36-2.916-3.32-2.402C13.407,9.465,8.329,12.46,6.04,18.932
	c-1.296,3.666-1.804,5.505,3.235,4.846C10.677,23.594,12.126,23.75,13.552,23.75z M27.855,37.472
	c0.478,2.278,0.956,4.556,1.434,6.834c2.43-0.943,4.936-1.734,7.258-2.893c1.228-0.613,2.342-1.723,3.145-2.863
	c1.603-2.275,2.955-4.727,4.411-7.106c-2.375-0.407-4.749-0.816-7.123-1.221c-0.201-0.034-0.406-0.045-0.61-0.062
	C26.909,29.359,28.581,29.367,27.855,37.472z"/>
<g>
</g>
<g>
</g>
<g>
</g>
<g>
</g>
<g>
</g>
<g>
</g>
<g>
</g>
<g>
</g>
<g>
</g>
<g>
</g>
<g>
</g>
<g>
</g>
<g>
</g>
<g>
</g>
<g>
</g>
</svg>
