<?xml version="1.0" encoding="iso-8859-1"?>
<!-- Generator: Adobe Illustrator 18.0.0, SVG Export Plug-In . SVG Version: 6.00 Build 0)  -->
<!DOCTYPE svg PUBLIC "-//W3C//DTD SVG 1.1//EN" "http://www.w3.org/Graphics/SVG/1.1/DTD/svg11.dtd">
<svg version="1.1" id="Capa_1" xmlns="http://www.w3.org/2000/svg" xmlns:xlink="http://www.w3.org/1999/xlink" x="0px" y="0px"
	 viewBox="0 0 56.479 56.479" style="enable-background:new 0 0 56.479 56.479;" xml:space="preserve">
<g>
	<path d="M50.228,12.171C43.7,5.512,36.285,1.408,27.281,2.74C19.594,1.945,12.793,2.88,8.108,8.599
		c-2.909,3.55-5.196,7.902-6.687,12.262c-3.823,11.18,0.206,21.196,10.424,27.334c6.289,3.777,13.208,5.643,20.49,5.787
		c6.116,0.121,12.083-1.176,16.108-6.177c4.813-5.978,8.243-12.686,8.026-20.75C56.314,21.246,54.354,16.379,50.228,12.171z
		 M46.001,43.439c-1.035,1.547-3.146,2.712-5.001,3.296c-3.082,0.969-6.356,1.325-9.549,1.939
		c-6.504-0.057-12.22-2.331-17.532-5.523c-6.946-4.174-9.986-12.172-7.939-20.14c1.629-6.343,4.152-12.525,10.841-14.699
		c8.679-2.82,17.492-2.612,24.969,3.567c3.556,2.939,7.273,5.835,8.784,10.761C53.005,30.566,50.191,37.175,46.001,43.439z"/>
	<path d="M24.416,17.216c-3.87,0.603-6.827,5.536-5.956,10.683c0.357,2.11,1.401,4.285,2.688,6.017
		c2.462,3.318,6.438,4.436,9.79,3.258c3.245-1.141,4.713-3.75,4.721-8.907c-0.064-0.71-0.04-1.96-0.309-3.144
		C34.237,20.21,29.043,16.495,24.416,17.216z M28.363,32.297c-2.973-0.112-5.396-2.934-5.347-6.35
		c0.026-1.853,0.107-3.877,2.819-3.761c2.958,0.126,5.26,2.892,5.362,6.61C31.065,30.41,31.064,32.398,28.363,32.297z"/>
</g>
<g>
</g>
<g>
</g>
<g>
</g>
<g>
</g>
<g>
</g>
<g>
</g>
<g>
</g>
<g>
</g>
<g>
</g>
<g>
</g>
<g>
</g>
<g>
</g>
<g>
</g>
<g>
</g>
<g>
</g>
</svg>
