<?xml version="1.0" encoding="iso-8859-1"?>
<!-- Generator: Adobe Illustrator 18.0.0, SVG Export Plug-In . SVG Version: 6.00 Build 0)  -->
<!DOCTYPE svg PUBLIC "-//W3C//DTD SVG 1.1//EN" "http://www.w3.org/Graphics/SVG/1.1/DTD/svg11.dtd">
<svg version="1.1" id="Capa_1" xmlns="http://www.w3.org/2000/svg" xmlns:xlink="http://www.w3.org/1999/xlink" x="0px" y="0px"
	 viewBox="0 0 60.483 60.483" style="enable-background:new 0 0 60.483 60.483;" xml:space="preserve">
<path d="M26.628,53.945c0-1.023-0.066-2.052,0.013-3.068c0.195-2.51-0.789-3.905-3.437-3.868c-0.407,0.005-0.869,0.052-1.214-0.111
	c-1.543-0.731-4.377-1.607-4.337-2.292c0.144-2.492,2.726-1.568,4.347-1.986c0.782-0.202,1.808,0.1,2.4-0.302
	c1.044-0.709,2.096-1.646,2.676-2.737c0.752-1.415,0.262-2.67-1.315-3.524c-1.788-0.969-3.55-2.047-5.136-3.313
	c-4.007-3.198-6.286-7.52-7.302-12.459c-1.894-9.207,5.025-18.806,14.38-20.124c9.463-1.332,18.702,5.841,19.63,15.241
	c1.029,10.428-3.584,17.67-13.724,21.837c-0.803,0.33-1.771,1.763-1.636,2.493c0.167,0.902,1.331,2.174,2.198,2.29
	c2.618,0.353,5.321,0.051,7.947,0.37c0.988,0.12,1.855,1.243,2.777,1.908c-0.937,0.874-1.75,2.26-2.834,2.521
	c-2.949,0.71-6.986-0.061-8.753,1.652c-1.727,1.674-1.16,5.693-1.656,8.675c-0.132,0.793-0.287,1.697-0.76,2.285
	c-0.448,0.557-1.426,1.168-1.996,1.03c-0.829-0.201-1.996-0.95-2.138-1.646c-0.321-1.565-0.101-3.241-0.101-4.872
	C26.648,53.945,26.638,53.945,26.628,53.945z M42.464,17.028c-0.307-1.011-0.684-3.277-1.655-5.251
	c-2.536-5.152-7.684-7.129-12.628-7.601c-3.896-0.372-6.909,3.409-8.896,6.783c-3.158,5.359-1.186,10.459,2.234,14.814
	c3.034,3.862,6.578,7.684,12.374,6.274c4.297-1.046,8.397-7.58,8.571-13.178C42.47,18.665,42.464,18.459,42.464,17.028z"/>
<g>
</g>
<g>
</g>
<g>
</g>
<g>
</g>
<g>
</g>
<g>
</g>
<g>
</g>
<g>
</g>
<g>
</g>
<g>
</g>
<g>
</g>
<g>
</g>
<g>
</g>
<g>
</g>
<g>
</g>
</svg>
