<?xml version="1.0" encoding="iso-8859-1"?>
<!-- Generator: Adobe Illustrator 18.0.0, SVG Export Plug-In . SVG Version: 6.00 Build 0)  -->
<!DOCTYPE svg PUBLIC "-//W3C//DTD SVG 1.1//EN" "http://www.w3.org/Graphics/SVG/1.1/DTD/svg11.dtd">
<svg version="1.1" id="Capa_1" xmlns="http://www.w3.org/2000/svg" xmlns:xlink="http://www.w3.org/1999/xlink" x="0px" y="0px"
	 viewBox="0 0 55.314 55.314" style="enable-background:new 0 0 55.314 55.314;" xml:space="preserve">
<path d="M28.905,6.51c7.584,0,15.169-0.063,22.752,0.026c3.963,0.047,4.516,0.973,2.571,4.266
	c-6.976,11.812-13.924,23.646-21.171,35.292c-1.162,1.868-3.722,2.96-5.806,4.099c-0.555,0.303-2.015-0.308-2.582-0.932
	c-1.087-1.197-1.922-2.657-2.705-4.093C16.255,34.705,9.827,24.726,2.331,15.44c-0.997-1.233-2.077-2.741-2.259-4.227
	c-0.508-4.134,1.662-6.301,6.094-6.164c7.579,0.233,15.152,0.678,22.729,1.034C28.898,6.225,28.902,6.367,28.905,6.51z
	 M27.052,10.895c-6.259-0.376-12.173-0.785-18.093-1.05c-1.522-0.067-3.064,0.318-4.598,0.496c0.808,1.139,1.598,2.289,2.425,3.412
	c4.115,5.59,8.389,11.071,12.313,16.793c2.653,3.869,4.809,8.078,7.208,12.122c0.873,1.472,1.691,1.413,2.646-0.035
	c3.485-5.288,7.061-10.518,10.553-15.803c2.479-3.751,4.98-7.493,7.287-11.351c2.634-4.407,2.545-4.52-2.277-4.57
	C38.586,10.847,32.655,10.895,27.052,10.895z"/>
<g>
</g>
<g>
</g>
<g>
</g>
<g>
</g>
<g>
</g>
<g>
</g>
<g>
</g>
<g>
</g>
<g>
</g>
<g>
</g>
<g>
</g>
<g>
</g>
<g>
</g>
<g>
</g>
<g>
</g>
</svg>
